nColumns=19
nRows=40
DataType=double
version=3
OpenSimVersion=4.1
endheader
time	ground_force_1_vx	ground_force_1_vy	ground_force_1_vz	ground_force_1_px	ground_force_1_py	ground_force_1_pz	ground_force_1_mx	ground_force_1_my	ground_force_1_mz	ground_force_2_vx	ground_force_2_vy	ground_force_2_vz	ground_force_2_px	ground_force_2_py	ground_force_2_pz	ground_force_2_mx	ground_force_2_my	ground_force_2_mz
2.75833	-14.1146	33.2208	-15.7439	1.37948	0	-0.22073	0	-1.18212	0	0	0	0	-0.000552776	0	-0.000118034	0	0	0
2.76667	-44.7695	101.791	-29.6929	1.42384	0	-0.238585	-0	2.63755	-0	0	0	0	-0.000552733	0	-0.000118028	0	0	0
2.775	-108.982	261.312	-48.1392	1.44015	0	-0.244536	-0	6.5179	-0	0	0	0	-0.00055269	0	-0.000118023	0	0	0
2.78333	-188.495	520.139	-65.5932	1.43958	0	-0.249163	-0	9.42923	-0	0	0	0	-0.000552646	0	-0.000118017	0	0	0
2.79167	-229.195	828.42	-72.6952	1.42146	0	-0.253905	-0	10.4667	-0	0	0	0	-0.000552602	0	-0.000118011	0	0	0
2.8	-224.495	1131.09	-61.6503	1.38673	0	-0.258848	-0	9.18075	-0	0	0	0	-0.000552557	0	-0.000118005	0	0	0
2.80833	-232.409	1382.4	-32.0842	1.35022	0	-0.263491	-0	5.77199	-0	0	0	0	-0.000552512	0	-0.000118	0	0	0
2.81667	-265.913	1555.3	6.50023	1.32138	0	-0.266999	-0	1.03985	-0	0	0	0	-0.000552467	0	-0.000117994	0	0	0
2.825	-287.844	1669.92	38.6445	1.29567	0	-0.269553	0	-3.90857	0	0	0	0	-0.000552421	0	-0.000117988	0	0	0
2.83333	-266.826	1760.02	53.9725	1.26459	0	-0.271763	0	-8.05514	0	0	0	0	-0.000552375	0	-0.000117982	0	0	0
2.84167	-202.637	1832.56	55.2146	1.22672	0	-0.273345	0	-10.7777	0	0	0	0	-0.000552329	0	-0.000117976	0	0	0
2.85	-125.713	1870.42	52.7867	1.18805	0	-0.273865	0	-11.9389	0	0	0	0	-0.000552283	0	-0.00011797	0	0	0
2.85833	-49.5068	1860.15	52.5953	1.15069	0	-0.273417	0	-11.7759	0	0	0	0	-0.000552236	0	-0.000117964	0	0	0
2.86667	33.7163	1798.92	52.3437	1.1126	0	-0.272995	0	-10.7103	0	0	0	0	-0.000552189	0	-0.000117958	0	0	0
2.875	119.191	1686.65	48.9726	1.07416	0	-0.273427	0	-9.18236	0	0	0	0	-0.000552142	0	-0.000117952	0	0	0
2.88333	192.455	1527.31	44.5785	1.03718	0	-0.27413	0	-7.53998	0	0	0	0	-0.000552094	0	-0.000117946	0	0	0
2.89167	240.432	1328.17	42.5116	1.00254	0	-0.274165	0	-5.98205	0	0	0	0	-0.000552046	0	-0.000117939	0	0	0
2.9	262.195	1100.52	41.4577	0.96868	0	-0.273405	0	-4.56425	0	0	0	0	-0.000551998	0	-0.000117933	0	0	0
2.90833	257.648	858.573	37.0915	0.934839	0	-0.272482	0	-3.26655	0	0	0	0	-0.00055195	0	-0.000117927	0	0	0
2.91667	226.054	621.186	28.1649	0.902816	0	-0.272007	0	-2.0802	0	0	0	0	-0.000551902	0	-0.000117921	0	0	0
2.925	178.319	411.807	17.982	0.87389	0	-0.271322	0	-1.05407	0	0	0	0	-0.000551853	0	-0.000117914	0	0	0
2.93333	127.513	247.207	10.1377	0.851151	0	-0.268209	0	-0.277962	0	0	0	0	-0.000551804	0	-0.000117908	0	0	0
2.94167	82.7652	133.365	5.20567	0.838913	0	-0.259103	-0	0.167909	-0	0	0	0	-0.000551755	0	-0.000117902	0	0	0
2.95	47.2691	64.5286	1.99003	0.847338	0	-0.240828	-0	0.254624	-0	0	0	0	-0.000551705	0	-0.000117895	0	0	0
2.95833	21.6671	28.243	0.0369005	0.920644	0	-0.207645	-0	0.019326	-0	0	0	0	-0.000551656	0	-0.000117889	0	0	0
2.96667	6.98754	13.1543	-0.3628	1.06591	0	-0.135723	0	-0.441902	0	0	0	0	-0.000551606	0	-0.000117882	0	0	0
2.975	0	0	0	-0.000552173	0	-0.000117918	0	0	0	0	0	0	-0.000551556	0	-0.000117876	0	0	0
2.98333	0	0	0	-0.000552111	0	-0.000117909	0	0	0	0	0	0	-0.000551506	0	-0.000117869	0	0	0
2.99167	0	0	0	-0.00055205	0	-0.000117899	0	0	0	0	0	0	-0.000551456	0	-0.000117863	0	0	0
3	0	0	0	-0.000551988	0	-0.00011789	0	0	0	0	0	0	-0.000551405	0	-0.000117856	0	0	0
3.00833	0	0	0	-0.000551927	0	-0.000117881	0	0	0	0	0	0	-0.000551355	0	-0.00011785	0	0	0
3.01667	0	0	0	-0.000551865	0	-0.000117871	0	0	0	0	0	0	-0.000551304	0	-0.000117843	0	0	0
3.025	0	0	0	-0.000551803	0	-0.000117862	0	0	0	0	0	0	-0.000551253	0	-0.000117837	0	0	0
3.03333	0	0	0	-0.00055174	0	-0.000117853	0	0	0	0	0	0	-0.000551202	0	-0.00011783	0	0	0
3.04167	0	0	0	-0.000551678	0	-0.000117843	0	0	0	0	0	0	-0.000551151	0	-0.000117823	0	0	0
3.05	0	0	0	-0.000551615	0	-0.000117834	0	0	0	0	0	0	-0.0005511	0	-0.000117817	0	0	0
3.05833	0	0	0	-0.000551553	0	-0.000117824	0	0	0	0	0	0	-0.000551049	0	-0.00011781	0	0	0
3.06667	0	0	0	-0.00055149	0	-0.000117815	0	0	0	0	0	0	-0.000550998	0	-0.000117803	0	0	0
3.075	0	0	0	-0.000551427	0	-0.000117805	0	0	0	0.138986	14.4472	0.018511	1.32043	0	-0.201697	-0	1.14358	-0
3.08333	0	0	0	-0.000551364	0	-0.000117796	0	0	0	-10.8341	38.3185	0.269191	1.36522	0	-0.292098	0	-0.745312	0
